<?xml version="1.0" standalone="no"?>
<!DOCTYPE svg PUBLIC "-//W3C//DTD SVG 20010904//EN"
 "http://www.w3.org/TR/2001/REC-SVG-20010904/DTD/svg10.dtd">
<svg version="1.0" xmlns="http://www.w3.org/2000/svg"
 width="500.000000pt" height="500.000000pt" viewBox="0 0 500.000000 500.000000"
 preserveAspectRatio="xMidYMid meet">

<g transform="translate(0.000000,500.000000) scale(0.100000,-0.100000)"
fill="#000000" stroke="none">
<path d="M994 3463 c18 -100 57 -176 134 -263 17 -19 29 -36 27 -38 -1 -2 -32
11 -66 28 -69 35 -157 104 -232 184 l-47 51 21 -55 c11 -30 28 -70 37 -89 23
-49 158 -176 225 -212 32 -17 57 -33 55 -35 -2 -2 -31 3 -64 11 -79 18 -173
67 -234 122 -54 49 -59 49 -34 0 43 -82 123 -152 254 -224 39 -20 70 -41 70
-45 0 -10 -121 -2 -180 11 -25 5 -45 9 -46 8 -2 -1 29 -28 67 -60 70 -60 158
-109 217 -121 17 -4 32 -11 32 -15 0 -10 -106 -41 -138 -41 -12 0 -22 -4 -22
-8 0 -21 61 -36 155 -38 55 -2 102 -3 105 -4 11 -2 -86 -49 -102 -50 -33 0
-18 -17 35 -41 39 -17 77 -24 149 -27 55 -2 95 -8 92 -13 -3 -5 -30 -22 -60
-37 l-55 -28 75 -24 c63 -19 87 -22 158 -17 l83 6 -59 -55 -59 -54 52 0 c28 0
68 7 88 15 20 8 38 14 40 11 2 -2 -10 -18 -28 -35 -17 -18 -29 -34 -27 -37 3
-2 34 5 69 15 35 11 64 19 66 18 1 -2 -3 -20 -9 -40 -6 -20 -9 -39 -6 -42 12
-13 60 9 103 47 25 22 48 38 50 36 3 -2 -2 -29 -9 -59 -8 -30 -13 -56 -11 -57
9 -10 68 12 104 39 49 35 51 35 51 5 0 -37 10 -56 30 -56 21 0 66 43 88 85
l16 30 9 -59 c8 -47 6 -65 -6 -92 -26 -54 -154 -180 -233 -231 -41 -26 -74
-51 -74 -56 0 -10 80 -4 128 9 33 9 27 -5 -24 -64 -37 -42 -43 -53 -29 -58 23
-9 76 1 126 25 23 12 44 20 45 18 2 -2 -10 -31 -26 -66 -17 -35 -30 -65 -30
-67 0 -2 11 -4 25 -4 33 0 82 24 118 59 l29 26 -7 -82 c-7 -71 -5 -83 8 -83
15 0 97 85 97 101 0 5 4 9 9 9 5 0 12 -19 16 -42 9 -54 44 -148 55 -148 12 0
39 62 51 121 18 87 19 87 39 48 22 -43 77 -92 92 -83 7 4 8 34 4 83 l-7 76 23
-22 c38 -35 91 -63 121 -63 15 0 27 2 27 5 0 3 -14 33 -31 66 -17 34 -28 63
-26 65 2 3 28 -7 58 -21 57 -26 103 -32 114 -15 4 6 -12 31 -34 55 -57 62 -55
77 6 59 50 -15 103 -19 103 -6 0 4 -31 27 -69 51 -77 48 -176 143 -222 211
-27 39 -30 51 -25 89 3 24 6 52 6 62 0 26 17 24 24 -3 8 -31 39 -65 72 -83 32
-16 44 -7 44 36 0 39 8 40 53 8 23 -16 57 -32 76 -35 32 -7 34 -6 28 17 -4 13
-10 41 -13 62 -6 32 -4 36 10 31 9 -3 21 -15 27 -25 10 -20 79 -59 104 -59 19
0 19 8 0 54 -8 20 -14 36 -11 36 2 0 32 -9 66 -20 85 -27 89 -26 49 16 -32 35
-33 36 -9 29 40 -11 150 -18 150 -9 -1 5 -23 26 -50 47 -28 21 -50 42 -50 45
0 4 44 7 97 7 72 0 111 5 147 19 54 21 55 17 -24 66 -22 13 -40 26 -40 30 0 3
44 5 98 5 80 1 106 5 150 24 51 23 67 41 37 41 -22 0 -95 38 -95 50 0 5 29 6
69 3 74 -6 162 10 182 33 9 11 7 14 -12 14 -32 0 -139 31 -139 40 0 4 19 13
43 18 23 6 69 28 102 47 64 39 183 141 150 130 -11 -4 -65 -9 -120 -11 l-100
-5 69 36 c111 59 205 133 242 191 46 72 43 82 -13 36 -27 -22 -76 -54 -110
-71 -60 -30 -172 -65 -180 -57 -2 2 22 19 54 37 63 36 182 145 213 195 11 17
31 60 44 96 l25 66 -98 -98 c-78 -77 -114 -105 -172 -132 -41 -20 -76 -34 -78
-32 -3 2 7 17 20 32 74 81 125 174 134 242 8 62 6 62 -38 -8 -76 -119 -219
-252 -339 -313 -48 -25 -57 -20 -31 18 24 35 67 123 62 128 -2 2 -35 -31 -73
-73 -37 -43 -96 -99 -130 -125 -98 -76 -259 -149 -406 -181 -15 -3 -45 -30
-73 -66 -53 -66 -131 -122 -211 -151 -55 -19 -56 -22 -32 -84 17 -44 20 -93 8
-113 -6 -9 -14 -4 -30 17 -12 16 -48 44 -81 61 -40 22 -64 42 -75 63 -8 18
-11 33 -6 35 11 4 126 -54 153 -76 24 -21 21 -5 -8 46 -13 24 -29 61 -35 83
-6 23 -26 57 -44 77 -30 32 -39 36 -94 40 l-61 4 -49 -50 c-27 -28 -68 -79
-91 -113 -38 -56 -41 -59 -41 -32 0 25 -7 32 -71 61 -68 32 -138 90 -190 159
-20 27 -38 36 -101 52 -218 56 -402 177 -534 352 -23 30 -25 31 -19 9 4 -14
25 -58 46 -98 l40 -73 -52 26 c-128 65 -309 237 -360 343 -26 52 -33 54 -25 5z"/>
</g>
</svg>
